<svg xmlns="http://www.w3.org/2000/svg" width="600" height="600" viewBox="0 0 600 600"><path id="_1" data-name="1" d="M443.059 200.761q-.969 0-1.946-.042c-24.007-1.03-42.824-20.823-42.027-44.206.774-22.752 19.826-40.524 42.965-40.525.646 0 1.293.014 1.945.042 24.007 1.024 42.823 20.817 42.029 44.205-.775 22.753-19.827 40.526-42.966 40.526M300 0C134.314 0 0 134.315 0 300a298.7 298.7 0 0 0 33.51 137.885c70.114-10.566 189.328-42.824 197.655-140.293 1.485-59.826 53.191-91.949 96.884-91.949 32.124 0 59.913 17.351 60.251 53.814 2.728 78.489-63.982 75.851-139.8 114.954-87.689 56-94.436 114.227-83.7 175.5 1.392 7.658 3.284 15.1 7.91 21.8A298.815 298.815 0 0 0 300 600c165.685 0 300-134.314 300-300S465.685 0 300 0" style="fill:#f2bb13;fill-rule:evenodd"/></svg>